<svg width="65" height="56" viewBox="0 0 65 56" fill="none" xmlns="http://www.w3.org/2000/svg">
<path d="M65 38C65 47.9411 56.9411 56 47 56L20 56C17.2386 56 15 53.7614 15 51L15 17C15 11.4772 19.4772 7 25 7L60 7C62.7614 7 65 9.23858 65 12L65 38Z" fill="#E8F5E9"/>
<path d="M41.4163 23.0109C41.1043 23.0109 40.8506 22.7576 40.8506 22.4452V21.4839C40.8506 21.1719 41.1039 20.9182 41.4163 20.9182C41.7283 20.9182 41.982 21.1715 41.982 21.4839V22.4452C41.982 22.7576 41.7284 23.0109 41.4163 23.0109Z" fill="#103E13"/>
<path d="M39.0381 23.0109C38.7261 23.0109 38.4724 22.7576 38.4724 22.4452V21.4839C38.4724 21.1719 38.7257 20.9182 39.0381 20.9182C39.3501 20.9182 39.6038 21.1715 39.6038 21.4839V22.4452C39.6034 22.7576 39.3505 23.0109 39.0381 23.0109Z" fill="#103E13"/>
<path d="M36.66 23.0109C36.348 23.0109 36.0944 22.7576 36.0944 22.4452V21.4839C36.0944 21.1719 36.3476 20.9182 36.66 20.9182C36.9721 20.9182 37.2257 21.1715 37.2257 21.4839V22.4452C37.2257 22.7576 36.9725 23.0109 36.66 23.0109Z" fill="#103E13"/>
<path d="M41.4163 26.942C41.1043 26.942 40.8506 26.6888 40.8506 26.3763V25.4154C40.8506 25.1034 41.1039 24.8497 41.4163 24.8497C41.7283 24.8497 41.982 25.103 41.982 25.4154V26.3763C41.982 26.6888 41.7284 26.942 41.4163 26.942Z" fill="#103E13"/>
<path d="M39.0381 26.942C38.7261 26.942 38.4724 26.6888 38.4724 26.3763V25.4154C38.4724 25.1034 38.7257 24.8497 39.0381 24.8497C39.3501 24.8497 39.6038 25.103 39.6038 25.4154V26.3763C39.6034 26.6888 39.3505 26.942 39.0381 26.942Z" fill="#103E13"/>
<path d="M36.66 26.942C36.348 26.942 36.0944 26.6888 36.0944 26.3763V25.4154C36.0944 25.1034 36.3476 24.8497 36.66 24.8497C36.9721 24.8497 37.2257 25.103 37.2257 25.4154V26.3763C37.2257 26.6888 36.9725 26.942 36.66 26.942Z" fill="#103E13"/>
<path d="M41.4163 30.8733C41.1043 30.8733 40.8506 30.6201 40.8506 30.3076V29.3463C40.8506 29.0343 41.1039 28.7806 41.4163 28.7806C41.7283 28.7806 41.982 29.0339 41.982 29.3463V30.3076C41.982 30.6201 41.7284 30.8733 41.4163 30.8733Z" fill="#103E13"/>
<path d="M39.0381 30.8733C38.7261 30.8733 38.4724 30.6201 38.4724 30.3076V29.3463C38.4724 29.0343 38.7257 28.7806 39.0381 28.7806C39.3501 28.7806 39.6038 29.0339 39.6038 29.3463V30.3076C39.6034 30.6201 39.3505 30.8733 39.0381 30.8733Z" fill="#103E13"/>
<path d="M36.66 30.8733C36.348 30.8733 36.0944 30.6201 36.0944 30.3076V29.3463C36.0944 29.0343 36.3476 28.7806 36.66 28.7806C36.9721 28.7806 37.2257 29.0339 37.2257 29.3463V30.3076C37.2257 30.6201 36.9725 30.8733 36.66 30.8733Z" fill="#103E13"/>
<path d="M41.4163 34.8037C41.1043 34.8037 40.8506 34.5505 40.8506 34.2381V33.2767C40.8506 32.9647 41.1039 32.7111 41.4163 32.7111C41.7283 32.7111 41.982 32.9643 41.982 33.2767V34.2381C41.982 34.5505 41.7284 34.8037 41.4163 34.8037Z" fill="#103E13"/>
<path d="M39.0381 34.8037C38.7261 34.8037 38.4724 34.5505 38.4724 34.2381V33.2767C38.4724 32.9647 38.7257 32.7111 39.0381 32.7111C39.3501 32.7111 39.6038 32.9643 39.6038 33.2767V34.2381C39.6034 34.5505 39.3505 34.8037 39.0381 34.8037Z" fill="#103E13"/>
<path d="M36.66 34.8037C36.348 34.8037 36.0944 34.5505 36.0944 34.2381V33.2767C36.0944 32.9647 36.3476 32.7111 36.66 32.7111C36.9721 32.7111 37.2257 32.9643 37.2257 33.2767V34.2381C37.2257 34.5505 36.9725 34.8037 36.66 34.8037Z" fill="#103E13"/>
<path d="M41.4163 38.735C41.1043 38.735 40.8506 38.4817 40.8506 38.1693V37.2084C40.8506 36.8964 41.1039 36.6427 41.4163 36.6427C41.7283 36.6427 41.982 36.896 41.982 37.2084V38.1693C41.982 38.4813 41.7284 38.735 41.4163 38.735Z" fill="#103E13"/>
<path d="M39.0381 38.735C38.7261 38.735 38.4724 38.4817 38.4724 38.1693V37.2084C38.4724 36.8964 38.7257 36.6427 39.0381 36.6427C39.3501 36.6427 39.6038 36.896 39.6038 37.2084V38.1693C39.6034 38.4813 39.3505 38.735 39.0381 38.735Z" fill="#103E13"/>
<path d="M36.66 38.735C36.348 38.735 36.0944 38.4817 36.0944 38.1693L36.0948 37.2084C36.0948 36.8964 36.348 36.6427 36.6604 36.6427C36.9725 36.6427 37.2261 36.896 37.2261 37.2084V38.1693C37.2257 38.4813 36.9725 38.735 36.66 38.735Z" fill="#103E13"/>
<path d="M20.5005 42.6471C20.5005 42.9592 20.7537 43.2128 21.0661 43.2128H55.5139C55.8259 43.2128 56.0796 42.9596 56.0796 42.6471C56.0796 42.3351 55.8263 42.0815 55.5139 42.0815H54.4682V25.8402C54.4682 25.5281 54.215 25.2745 53.9025 25.2745L44.6668 25.2749V13.5658C44.6668 13.3677 44.5635 13.1847 44.3946 13.0821C44.2262 12.9792 44.0156 12.9729 43.8404 13.064L33.3401 18.531C33.1527 18.6284 33.0359 18.8217 33.0359 19.0327V29.2604H22.8739C22.5619 29.2604 22.3082 29.5137 22.3082 29.8261V42.0816H21.0649C20.7529 42.0812 20.5 42.3344 20.5 42.6468L20.5005 42.6471ZM44.667 33.8422H53.3374V42.0819L44.667 42.0815V33.8422ZM44.667 29.9113H53.3374V32.7113L44.667 32.7109V29.9113ZM44.667 26.4056H53.3374V28.7808H44.667V26.4056ZM34.1667 19.3762L43.5353 14.4982V42.081H34.1667V19.3762ZM26.2359 37.5635C26.2359 36.3895 27.166 35.4341 28.3096 35.4341C29.4531 35.4341 30.3837 36.3891 30.3837 37.5635V42.0817H26.2359V37.5635ZM23.4395 30.3916H33.0358V42.0815H31.515V37.5633C31.515 35.7657 30.0776 34.303 28.3096 34.303C26.5424 34.303 25.105 35.7653 25.105 37.5633V42.0815H23.4395V30.3916Z" fill="#103E13"/>
</svg>
