<svg width="65" height="56" viewBox="0 0 65 56" fill="none" xmlns="http://www.w3.org/2000/svg">
<path d="M65 38C65 47.9411 56.9411 56 47 56L20 56C17.2386 56 15 53.7614 15 51L15 17C15 11.4772 19.4772 7 25 7L60 7C62.7614 7 65 9.23858 65 12L65 38Z" fill="#E8F5E9"/>
<path d="M39.5019 17C36.7477 17 34.5054 19.2814 34.5054 22.0703C34.5054 23.8345 35.404 25.3923 36.7608 26.3003C35.122 26.8528 33.704 27.8853 32.664 29.2362C32.089 28.7902 31.4465 28.4316 30.7538 28.1746C31.8042 27.3884 32.4905 26.1255 32.4905 24.7061C32.4905 22.3408 30.5932 20.4045 28.2615 20.4045C25.9299 20.4045 24.0326 22.3408 24.0326 24.7061C24.0326 26.1263 24.7195 27.3898 25.7707 28.176C22.9876 29.2115 21 31.9225 21 35.113V37.3542C21.0003 37.525 21.0681 37.6887 21.1882 37.809C21.3084 37.9296 21.4711 37.9968 21.6405 37.9962H31.3928C31.4164 37.9988 31.44 38.0003 31.4637 38H47.5407C47.5644 38.0003 47.5883 37.9988 47.6116 37.9962H57.3646C57.7152 37.9948 57.9991 37.7079 58 37.3542V35.113C58 31.9225 56.0158 29.2115 53.2342 28.1757C54.2854 27.3898 54.9723 26.126 54.9723 24.7058C54.9723 22.3405 53.075 20.4042 50.7433 20.4042C48.4117 20.4042 46.5144 22.3405 46.5144 24.7058C46.5144 26.1252 47.201 27.3883 48.2513 28.1743C47.5573 28.4319 46.9145 28.7917 46.3386 29.2387C45.2991 27.8871 43.8831 26.8531 42.2444 26.3003C43.6009 25.3923 44.4997 23.8345 44.4997 22.0703C44.4997 19.2814 42.2564 17 39.5021 17H39.5019ZM39.5019 18.2864C41.5619 18.2864 43.2225 19.972 43.2225 22.0703C43.2225 24.1521 41.5878 25.8213 39.5506 25.848C39.5344 25.848 39.5184 25.8457 39.5019 25.8457C39.4854 25.8457 39.4697 25.848 39.4532 25.848C37.4161 25.8216 35.7824 24.1522 35.7824 22.0703C35.7824 19.9717 37.4417 18.2864 39.5016 18.2864H39.5019ZM28.2616 21.6909C29.8961 21.6909 31.2147 23.0284 31.2147 24.706C31.2147 26.3723 29.9131 27.7041 28.2941 27.7222C28.2832 27.7222 28.2727 27.7211 28.2616 27.7211C28.2508 27.7211 28.2402 27.7222 28.2291 27.7222C26.61 27.7041 25.3085 26.372 25.3085 24.706C25.3085 23.0285 26.6271 21.6909 28.2616 21.6909H28.2616ZM50.743 21.6909C52.3774 21.6909 53.696 23.0284 53.696 24.706C53.696 26.3723 52.3945 27.7041 50.7754 27.7222C50.7646 27.7222 50.754 27.7211 50.7429 27.7211C50.7321 27.7211 50.7216 27.7222 50.7105 27.7222C49.0914 27.7041 47.7898 26.372 47.7898 24.706C47.7898 23.0285 49.1085 21.6909 50.7429 21.6909H50.743ZM39.4531 27.1344C39.4693 27.1347 39.4853 27.1367 39.5018 27.1367C39.518 27.1367 39.534 27.1344 39.5505 27.1344C43.6359 27.1608 46.9055 30.4858 46.9055 34.6479L46.9052 36.7131H32.0989V34.6479C32.0989 30.4854 35.3676 27.1609 39.4525 27.1344H39.4531ZM28.2128 29.0101C28.229 29.0104 28.245 29.0124 28.2615 29.0124C28.278 29.0124 28.2937 29.0101 28.3102 29.0101C29.692 29.0213 30.9531 29.5017 31.9573 30.3054C31.2387 31.5873 30.8232 33.0669 30.8232 34.6483V36.7086H22.2754V35.1129C22.2754 31.7302 24.9132 29.0365 28.2126 29.0098L28.2128 29.0101ZM50.6941 29.0101C50.7106 29.0104 50.7263 29.0124 50.7428 29.0124C50.7593 29.0124 50.775 29.0101 50.7915 29.0101C54.0909 29.0365 56.7287 31.7306 56.7287 35.1132V36.7086H48.1766L48.1763 34.6483C48.1763 33.0678 47.7619 31.5893 47.0448 30.3077C48.0492 29.5028 49.3112 29.0213 50.6942 29.0101H50.6941Z" fill="#103E13"/>
</svg>
