<svg width="65" height="56" viewBox="0 0 65 56" fill="none" xmlns="http://www.w3.org/2000/svg">
<path d="M65 38C65 47.9411 56.9411 56 47 56L20 56C17.2386 56 15 53.7614 15 51L15 17C15 11.4772 19.4772 7 25 7L60 7C62.7614 7 65 9.23858 65 12L65 38Z" fill="#E8F5E9"/>
<path d="M44.3435 29.6446C44.1027 29.6446 43.8791 29.5784 43.6805 29.4719V29.4748C43.6805 29.8536 43.5333 30.2094 43.2661 30.4758C42.999 30.743 42.6435 30.8903 42.2651 30.8903C42.0207 30.8903 41.7943 30.8224 41.5936 30.7131C41.5733 31.0597 41.4348 31.3836 41.1877 31.631C40.9205 31.8982 40.565 32.0454 40.1863 32.0454C39.4341 32.0454 38.8231 31.4541 38.7791 30.7129C38.5463 30.8387 38.2832 30.9046 38.0118 30.8872C37.2717 30.8387 36.6922 30.1993 36.6922 29.4312V23.0645L35.9672 24.3205C35.6911 24.8009 35.1742 25.0991 34.6177 25.0991C34.3465 25.0991 34.0786 25.028 33.8414 24.892C33.546 24.7208 33.3346 24.4458 33.2468 24.1169C33.1584 23.7878 33.2041 23.4436 33.3749 23.1486C33.3752 23.1486 35.7469 19.0414 35.8916 18.7891C35.9088 18.7512 35.9578 18.6411 35.9995 18.5474C36.0393 18.4578 36.0735 18.366 36.1062 18.2736C36.8215 16.2543 38.5925 15 40.7284 15C43.5021 15 45.7587 17.4469 45.7587 20.4546L45.7589 28.2289C45.7589 28.6073 45.6119 28.9628 45.345 29.2302C45.0778 29.4974 44.7223 29.6447 44.3435 29.6447L44.3435 29.6446ZM40.7285 15.7521C38.8931 15.7521 37.4303 16.7888 36.8152 18.5251C36.7758 18.6354 36.7348 18.7457 36.687 18.8531C36.5482 19.1643 36.5482 19.1643 36.5091 19.2091L36.504 19.2046C36.3103 19.57 35.735 20.5663 34.0262 23.525C33.956 23.6463 33.9373 23.7872 33.9732 23.922C34.0094 24.0567 34.0964 24.1703 34.2168 24.2398C34.5904 24.4544 35.1022 24.3159 35.3151 23.9448L36.7426 21.4734C36.8279 21.3261 37.0004 21.2538 37.1658 21.2986C37.3302 21.3426 37.4445 21.4918 37.4445 21.6619V29.4314C37.4445 29.798 37.7211 30.1144 38.061 30.1368C38.2571 30.1471 38.4399 30.0814 38.5772 29.9443C38.7021 29.8194 38.7709 29.6531 38.7709 29.4752V24.3938C38.7709 24.186 38.9394 24.0176 39.1472 24.0176C39.3549 24.0176 39.5234 24.1858 39.5234 24.3938L39.5232 30.6302C39.5232 30.9958 39.8207 31.2934 40.1864 31.2934C40.364 31.2934 40.5308 31.2246 40.6559 31.0997C40.7808 30.9746 40.8496 30.8078 40.8496 30.6302V24.3938C40.8496 24.186 41.0178 24.0176 41.2258 24.0176C41.4336 24.0176 41.6021 24.1858 41.6021 24.3938L41.6018 29.4168V29.4752C41.6018 29.8406 41.8994 30.1381 42.2653 30.1381C42.4427 30.1381 42.609 30.0691 42.7348 29.9438C42.8597 29.8191 42.9285 29.6528 42.9285 29.4749V24.3936C42.9285 24.1858 43.0967 24.0173 43.3047 24.0173C43.5125 24.0173 43.681 24.1855 43.681 24.3936L43.6805 28.2291C43.6805 28.595 43.9781 28.8925 44.3435 28.8925C44.5214 28.8925 44.6877 28.8235 44.8126 28.6989C44.9379 28.5736 45.0065 28.4067 45.0065 28.2291L45.0067 20.4548C45.0067 17.862 43.0875 15.7522 40.7284 15.7522L40.7285 15.7521Z" fill="#103E13"/>
<path d="M29.561 35.048L35.0207 31.7727C35.6789 31.3774 36.5259 31.5454 36.9481 32.1553C37.1022 32.3775 37.1809 32.6364 37.1931 32.9001C37.3967 32.7938 37.6181 32.7361 37.8436 32.7361C37.959 32.7361 38.075 32.7505 38.1895 32.779C38.5563 32.8706 38.8654 33.0999 39.0598 33.424C39.2544 33.7487 39.3112 34.1291 39.2195 34.4955C39.1349 34.8346 38.9288 35.1199 38.6421 35.3157C38.8426 35.4339 39.0155 35.5953 39.1385 35.8008C39.3331 36.1254 39.3899 36.5057 39.2984 36.8725C39.2068 37.2389 38.9776 37.548 38.6529 37.7429L38.651 37.744C38.848 37.8621 39.0178 38.0218 39.1394 38.2242C39.3343 38.5488 39.391 38.9293 39.2994 39.2961C39.2075 39.6627 38.9783 39.9718 38.6541 40.1664L31.9877 44.1657C30.7435 44.9119 29.3052 45.1694 27.9382 44.8902C26.559 44.6084 25.4168 43.8157 24.7223 42.6579C23.6232 40.8261 23.788 38.6619 25.1513 37.0101C25.2138 36.9347 25.2753 36.8579 25.3311 36.7783C25.3902 36.6942 25.4593 36.5952 25.4828 36.5613C25.624 36.3092 27.9267 32.1603 27.9265 32.1608C28.159 31.7412 28.5949 31.5037 29.0444 31.5039C29.2541 31.5039 29.4668 31.5555 29.6631 31.6644C29.9001 31.7968 30.0992 31.9898 30.2384 32.2223C30.5247 32.6994 30.5348 33.2964 30.2653 33.7796L29.561 35.048ZM29.5937 32.6091C29.5207 32.4873 29.4203 32.3902 29.2976 32.3214C29.0438 32.181 28.7244 32.2724 28.5847 32.5252C26.9369 35.4937 26.3752 36.5054 26.1584 36.8654L26.1634 36.8666C26.1453 36.9269 26.1453 36.9269 25.9469 37.2103C25.8795 37.3062 25.8062 37.3983 25.7315 37.489C24.5592 38.9094 24.4231 40.6969 25.3671 42.2709C25.9518 43.2458 26.9183 43.9142 28.0885 44.1531C29.2714 44.3937 30.5182 44.1699 31.6003 43.5206L38.2673 39.5211C38.4195 39.4299 38.5269 39.285 38.5698 39.1133C38.6127 38.9417 38.5861 38.7634 38.4947 38.6112C38.3067 38.2979 37.8984 38.1949 37.585 38.3836L34.2961 40.3568C34.118 40.4637 33.8866 40.4062 33.7799 40.2279C33.6729 40.0498 33.7307 39.8187 33.9088 39.7117L37.1979 37.7386L38.2661 37.0977C38.4183 37.0063 38.526 36.8614 38.5689 36.6901C38.6118 36.5184 38.5851 36.3398 38.4937 36.1878C38.3055 35.8743 37.8972 35.7723 37.5841 35.9603L33.2267 38.5742C33.0481 38.6814 32.8175 38.6235 32.7105 38.4454C32.6036 38.2673 32.6615 38.0361 32.8394 37.9292L38.1872 34.7211C38.3394 34.6296 38.4469 34.485 38.4897 34.3132C38.5326 34.1417 38.506 33.9634 38.4148 33.8112C38.3236 33.6592 38.1787 33.5518 38.007 33.5089C37.8343 33.466 37.6567 33.4927 37.5049 33.5836L36.515 34.1775C36.5147 34.1775 36.5147 34.1778 36.5145 34.1778H36.5142L32.1571 36.7917C31.9785 36.8992 31.7476 36.8412 31.6409 36.6629C31.534 36.4848 31.5919 36.2536 31.7698 36.1467L36.1272 33.5327C36.2794 33.4413 36.387 33.2964 36.4299 33.1251C36.477 32.9371 36.4412 32.7449 36.3295 32.5837C36.1359 32.3036 35.7217 32.2291 35.4077 32.4179L28.7455 36.4146C28.5996 36.5017 28.4128 36.4805 28.2905 36.3625C28.168 36.2442 28.1405 36.0583 28.2229 35.9097L29.6082 33.4137C29.7472 33.1642 29.7418 32.8561 29.5936 32.6092L29.5937 32.6091Z" fill="#103E13"/>
<path d="M55.65 42.6577C54.9556 43.8157 53.8137 44.6083 52.4343 44.8901C51.0671 45.1688 49.6293 44.9117 48.3848 44.1656L41.7178 40.1661C41.3934 39.9715 41.1639 39.6624 41.0721 39.2953C40.9809 38.9289 41.0379 38.5484 41.2323 38.2243C41.3536 38.0216 41.5237 37.8619 41.7209 37.7439L41.719 37.7427C41.3946 37.5481 41.1651 37.239 41.0737 36.8724C40.9818 36.5058 41.0388 36.125 41.2335 35.8004C41.3588 35.5919 41.5305 35.4289 41.7266 35.3132C41.442 35.1174 41.237 34.8331 41.1526 34.4957C41.0608 34.1288 41.1178 33.7483 41.3124 33.4242C41.5067 33.0997 41.8161 32.8705 42.1827 32.7789C42.2972 32.7501 42.4133 32.736 42.5283 32.736C42.754 32.7362 42.9755 32.7935 43.179 32.9C43.1915 32.6363 43.27 32.3774 43.4241 32.1552C43.8465 31.5458 44.6927 31.3771 45.352 31.7726L50.8115 35.0474L50.1078 33.7799C49.8378 33.296 49.8477 32.699 50.1339 32.2216C50.2734 31.9893 50.4727 31.7964 50.7109 31.6628C50.9067 31.5544 51.1187 31.5031 51.3279 31.5031C51.7772 31.5033 52.2135 31.7403 52.4458 32.1599C53.2553 33.6185 54.7829 36.3694 54.8904 36.5614C54.9132 36.5946 54.9822 36.6936 55.0414 36.7777C55.0977 36.8575 55.1585 36.9339 55.2214 37.0097C56.5846 38.6622 56.749 40.8262 55.6499 42.6578L55.65 42.6577ZM54.6409 37.4892C54.566 37.3985 54.4925 37.3059 54.4256 37.2105C54.222 36.9217 54.2169 36.9141 54.2015 36.8385C53.9636 36.4448 53.3831 35.3997 51.7874 32.5249C51.6474 32.2726 51.3294 32.1805 51.0761 32.3204C50.9515 32.3901 50.8514 32.4874 50.7783 32.6093C50.6304 32.8559 50.6247 33.1641 50.7644 33.4143L52.1493 35.9095C52.232 36.0584 52.2044 36.2441 52.0821 36.3623C51.9601 36.4808 51.7735 36.5016 51.6269 36.4144L44.9648 32.4177C44.6507 32.2295 44.2368 32.3032 44.0426 32.5836C43.931 32.7447 43.8954 32.937 43.942 33.1247C43.9849 33.2963 44.0926 33.4409 44.245 33.5323C44.2455 33.5326 44.2457 33.533 44.2462 33.5333L48.6022 36.1465C48.7803 36.2535 48.838 36.4844 48.7311 36.6627C48.6241 36.8406 48.3934 36.8988 48.2149 36.7916L42.867 33.5835C42.7153 33.4925 42.5367 33.4657 42.3652 33.5088C42.1932 33.5517 42.0486 33.6591 41.9574 33.8115C41.866 33.9635 41.8396 34.1418 41.882 34.3133C41.9249 34.4849 42.0325 34.6297 42.1847 34.7212L43.2254 35.3453L47.5323 37.9293C47.7104 38.0363 47.7682 38.2672 47.6612 38.4455C47.5542 38.6234 47.3236 38.6814 47.145 38.5744L42.7881 35.9604C42.4748 35.7719 42.0667 35.8742 41.8782 36.188C41.7868 36.3402 41.7604 36.5186 41.8028 36.6901C41.8457 36.8616 41.9534 37.0062 42.1058 37.0979L43.174 37.7387L46.4627 39.7119C46.6408 39.8188 46.6985 40.0497 46.5916 40.2281C46.4846 40.4059 46.254 40.4644 46.0754 40.3569L42.7867 38.3838C42.635 38.2928 42.4571 38.266 42.2846 38.3091C42.1131 38.352 41.968 38.4594 41.8768 38.6114C41.7856 38.7636 41.759 38.9421 41.8014 39.1134C41.8443 39.2849 41.952 39.4296 42.1044 39.5212L48.7714 43.5207C49.8533 44.1698 51.101 44.3945 52.2832 44.1533C53.4532 43.9144 54.4197 43.246 55.0044 42.2711C55.9494 40.6968 55.8134 38.9091 54.6413 37.4892L54.6409 37.4892Z" fill="#103E13"/>
</svg>
