<svg width="48" height="48" viewBox="0 0 48 48" fill="none" xmlns="http://www.w3.org/2000/svg">
<rect width="48" height="48" rx="8" fill="#F5F7FA"/>
<g clip-path="url(#clip0_15_1444)">
<path fill-rule="evenodd" clip-rule="evenodd" d="M10.0981 13.9613L0.112305 23.8467C2.10964 25.824 4.39129 27.4904 6.87894 28.7941C7.56655 30.5997 8.64433 32.293 10.1123 33.7462C15.6352 39.2135 24.5895 39.2135 30.1123 33.7462C31.5803 32.293 32.6581 30.5997 33.3457 28.794C35.8333 27.4904 38.115 25.824 40.1123 23.8467L30.1346 13.9693C30.1272 13.9619 30.1198 13.9546 30.1123 13.9472C24.5895 8.47985 15.6352 8.47985 10.1123 13.9472C10.1076 13.9519 10.1028 13.9566 10.0981 13.9613ZM29.1568 30.5776C26.2468 31.5498 23.192 32.0477 20.1123 32.0477C17.0326 32.0477 13.9779 31.5498 11.0679 30.5776C11.3832 30.9917 11.7313 31.3891 12.1123 31.7663C16.5306 36.1402 23.694 36.1402 28.1123 31.7663C28.4933 31.3891 28.8415 30.9917 29.1568 30.5776ZM12.3174 15.7291C13.0677 16.2198 13.8655 16.6397 14.7003 16.982C16.4161 17.6856 18.2551 18.0477 20.1123 18.0477C21.9695 18.0477 23.8085 17.6856 25.5243 16.982C26.3591 16.6397 27.1569 16.2198 27.9073 15.7291C23.5441 11.6192 16.6805 11.6192 12.3174 15.7291Z" fill="#3B4158"/>
</g>
<defs>
<clipPath id="clip0_15_1444">
<rect width="40" height="28" fill="white" transform="translate(0.112305 9.84668)"/>
</clipPath>
</defs>
</svg>
