<svg width="48" height="48" viewBox="0 0 48 48" fill="none" xmlns="http://www.w3.org/2000/svg">
<rect width="48" height="48" rx="8" fill="#E8F5E9"/>
<g clip-path="url(#clip0_15_1441)">
<path fill-rule="evenodd" clip-rule="evenodd" d="M10.3533 0.19458C15.8761 0.19458 20.3533 4.67173 20.3533 10.1946V0.19458H30.3533C35.8761 0.19458 40.3533 4.67173 40.3533 10.1946C40.3533 15.7174 35.8761 20.1946 30.3533 20.1946C35.8761 20.1946 40.3533 24.6718 40.3533 30.1946C40.3533 32.9369 39.2494 35.4214 37.4618 37.228L37.4244 37.2657L37.3912 37.2987C35.5842 39.0889 33.0979 40.1946 30.3533 40.1946C27.6274 40.1946 25.1562 39.1039 23.3523 37.3351C23.3289 37.3121 23.3055 37.2889 23.2822 37.2657C23.2603 37.2438 23.2385 37.2218 23.2168 37.1997C21.4457 35.3955 20.3533 32.9226 20.3533 30.1946C20.3533 35.7174 15.8761 40.1946 10.3533 40.1946C4.83048 40.1946 0.353333 35.7174 0.353333 30.1946V20.1946H10.3533C4.83048 20.1946 0.353333 15.7174 0.353333 10.1946C0.353333 4.67173 4.83048 0.19458 10.3533 0.19458ZM18.3533 10.1946C18.3533 14.6129 14.7716 18.1946 10.3533 18.1946V2.19458C14.7716 2.19458 18.3533 5.7763 18.3533 10.1946ZM38.3533 30.1946C38.3533 25.7763 34.7716 22.1946 30.3533 22.1946C25.935 22.1946 22.3533 25.7763 22.3533 30.1946H38.3533ZM2.35333 22.1946V30.1946C2.35333 34.6129 5.93505 38.1946 10.3533 38.1946C14.7716 38.1946 18.3533 34.6129 18.3533 30.1946V22.1946H2.35333ZM22.3533 18.1946V2.19458H30.3533C34.7716 2.19458 38.3533 5.7763 38.3533 10.1946C38.3533 14.6129 34.7716 18.1946 30.3533 18.1946H22.3533Z" fill="#5417D7"/>
</g>
<defs>
<clipPath id="clip0_15_1441">
<rect width="40" height="40" fill="white" transform="translate(0.353333 0.19458)"/>
</clipPath>
</defs>
</svg>
