<svg width="48" height="48" viewBox="0 0 48 48" fill="none" xmlns="http://www.w3.org/2000/svg">
<rect width="48" height="48" rx="8" fill="#F5F7FA"/>
<g clip-path="url(#clip0_15_1451)">
<path d="M43.9966 13.4113C43.9966 13.4451 43.9966 13.4873 43.9878 13.5127C43.9437 13.8424 43.9437 14.1721 43.9701 14.5102C43.9878 14.5947 44.0054 14.6793 44.0759 14.7469C44.1904 14.8737 44.3665 14.8484 44.437 14.6962C44.4722 14.6201 44.4722 14.544 44.4546 14.4679C44.3665 14.1467 44.3489 13.8086 44.3401 13.4789C44.3401 13.462 44.3401 13.4366 44.3401 13.4113C44.437 13.4028 44.5251 13.3944 44.6043 13.3944C44.666 13.3859 44.7188 13.3774 44.7629 13.3521C44.8949 13.2845 44.895 13.1408 44.754 13.0731C44.7012 13.0478 44.6307 13.0393 44.5691 13.0393C44.3489 13.0478 44.1287 13.0478 43.9085 13.0478C43.8293 13.0478 43.75 13.0562 43.6707 13.0647C43.6266 13.0731 43.5738 13.0731 43.5386 13.0985C43.4769 13.1238 43.4417 13.1661 43.4417 13.2253C43.4505 13.2845 43.4769 13.3183 43.5386 13.3436C43.5738 13.369 43.6178 13.3774 43.6619 13.3774C43.7676 13.3859 43.8821 13.4028 43.9966 13.4113ZM46.4187 13.8001C46.4187 13.8086 46.4275 13.817 46.4275 13.817C46.4627 14.0453 46.498 14.2651 46.5244 14.4849C46.5332 14.5609 46.542 14.6286 46.5949 14.6877C46.7094 14.8314 46.8855 14.8145 46.9648 14.6624C47 14.5863 47.0088 14.5102 46.9912 14.4257C46.9384 14.1721 46.9119 13.9185 46.8591 13.6733C46.8238 13.5212 46.7799 13.3774 46.7358 13.2422C46.7094 13.1577 46.6477 13.0985 46.542 13.09C46.4364 13.0731 46.3571 13.1238 46.313 13.1999C46.2602 13.2675 46.2161 13.3352 46.1809 13.4113C46.1192 13.5465 46.0664 13.6818 45.996 13.8086C45.9871 13.8424 45.9783 13.8678 45.9607 13.8931C45.9519 13.8762 45.9431 13.8678 45.9431 13.8678C45.8286 13.6564 45.7229 13.4451 45.6084 13.2422C45.5908 13.2253 45.582 13.2084 45.5732 13.1915C45.5203 13.1154 45.4587 13.0731 45.3618 13.0731C45.2737 13.0816 45.2032 13.1323 45.1592 13.2084C45.1416 13.2422 45.1416 13.2675 45.1328 13.3014C45.0975 13.5719 45.0535 13.8424 45.0183 14.1129C45.0006 14.2651 44.9918 14.4172 44.9918 14.5694C44.983 14.6032 44.9918 14.6455 45.0094 14.6793C45.0271 14.7469 45.0799 14.7892 45.1504 14.7976C45.2385 14.8061 45.3001 14.7807 45.3265 14.7131C45.3529 14.6624 45.3618 14.6201 45.3706 14.5778C45.4058 14.4257 45.4322 14.282 45.4587 14.1383C45.4763 14.0537 45.4851 13.9861 45.5115 13.8931C45.5291 13.9269 45.5467 13.9523 45.5644 13.9776C45.6436 14.0791 45.7229 14.1805 45.8198 14.2651C45.9167 14.3327 45.996 14.3242 46.0752 14.2482C46.0928 14.2312 46.1016 14.2228 46.1192 14.2059C46.1985 14.0875 46.2954 13.9692 46.3746 13.8508C46.3923 13.8339 46.4011 13.817 46.4187 13.8001Z" fill="#3A3B7B"/>
<path d="M26.1244 13.5774C26.0632 13.738 26.0515 13.8538 26.0798 13.95C26.111 14.0808 26.192 14.1236 26.302 14.0903C27.3366 13.8448 29.6051 14.5417 30.445 14.736C30.6431 14.7767 30.8042 14.5313 30.6691 14.3113C30.4718 14.0982 28.2043 13.1859 27.3391 13.1362C26.9999 13.1178 26.3936 13.0343 26.1244 13.5774Z" fill="#3A3B7B"/>
<path d="M34.9904 10.6244C35.1006 10.6854 35.1622 10.7437 35.1927 10.8088C35.238 10.8942 35.2141 10.9533 35.1379 10.9834C34.4541 11.3037 33.5441 12.6828 33.1768 13.1585C33.0877 13.2679 32.8823 13.2043 32.8513 13.0244C32.8577 12.8209 33.6643 11.3243 34.1145 10.9167C34.2915 10.7575 34.5837 10.4453 34.9904 10.6244Z" fill="#3A3B7B"/>
<path d="M29.5444 9.94541C29.6769 9.84959 29.8145 9.81602 29.8848 9.87828C30.9166 10.7252 31.4637 12.0663 31.8025 13.2941C31.8153 13.3227 31.8161 13.3638 31.8059 13.4066C31.8017 13.4432 31.7738 13.4818 31.7296 13.5118C31.6823 13.5448 31.6416 13.5548 31.6225 13.5264C31.1703 12.936 28.5875 10.6392 29.5444 9.94541Z" fill="#3A3B7B"/>
<path d="M7.69524 24.6285C7.94253 24.4518 8.21137 24.3047 8.49586 24.1905C8.7935 24.1089 9.11075 24.1224 9.39966 24.2291C9.68851 24.3359 9.93338 24.53 10.0971 24.7822C10.2435 25.0337 10.3008 25.3241 10.2604 25.6096C10.2199 25.8951 10.084 26.1602 9.87289 26.3651C9.70926 26.5312 9.52348 26.6759 9.3205 26.7954C8.41582 27.3564 7.50308 27.8866 6.59039 28.4475C6.40363 28.5879 6.20551 28.7139 5.99793 28.8241C5.68217 28.9752 5.32132 29.0157 4.97776 28.9385C4.6342 28.8614 4.32955 28.6713 4.11648 28.4014C3.95719 28.2103 3.82277 28.0013 3.71616 27.779C2.8515 26.0347 1.95481 24.2981 1.12217 22.523C0.737866 21.7546 0.425627 20.8709 0.121393 20.018C-0.010233 19.7702 -0.0359366 19.4829 0.0497553 19.2171C0.135447 18.9514 0.325774 18.7282 0.580249 18.5951C0.834727 18.462 1.13327 18.4294 1.4124 18.5043C1.69152 18.5791 1.92921 18.7556 2.0749 18.996C2.52271 19.5672 2.91911 20.1739 3.25981 20.8095C4.12448 22.3463 4.94912 23.8831 5.78176 25.3738C5.83024 25.4562 5.8837 25.5357 5.94188 25.612C6.56859 25.3591 7.15803 25.0285 7.69524 24.6285Z" fill="#3A3B7B"/>
<path d="M16.6354 24.0924C14.6579 26.313 11.3433 25.7521 9.67801 22.8936C8.49308 20.865 8.28493 17.5147 10.8629 15.4016C11.4135 14.9592 12.0717 14.6578 12.7764 14.5256C13.6404 14.4067 14.5214 14.553 15.2936 14.9435C16.0657 15.3341 16.6895 15.9489 17.0757 16.7002C18.4848 19.1591 18.2847 22.2942 16.6354 24.0924ZM15.8347 18.9132C15.6247 18.309 15.2032 17.7931 14.6418 17.4532C14.3242 17.2359 13.9382 17.1302 13.5489 17.154C13.1595 17.1778 12.7906 17.3296 12.5042 17.5838C11.3593 18.5597 11.1191 20.8727 11.9517 22.2481C12.0579 22.4724 12.2137 22.6717 12.4085 22.8322C12.6033 22.9926 12.8323 23.1102 13.0793 23.1768C13.3264 23.2434 13.5857 23.2574 13.839 23.2178C14.0923 23.1781 14.3335 23.0859 14.5458 22.9474C15.1664 22.4856 15.6217 21.8497 15.8484 21.1281C16.0751 20.4065 16.062 19.635 15.8108 18.9209L15.8347 18.9132Z" fill="#3A3B7B"/>
<path d="M24.7055 19.8815C24.5031 19.9233 24.294 19.9258 24.0904 19.8888C23.887 19.8518 23.6932 19.7762 23.5207 19.6663C23.3697 19.5834 23.2397 19.4695 23.14 19.3326C23.0405 19.1957 22.9737 19.0394 22.9446 18.8747C22.9155 18.7101 22.9248 18.5414 22.9718 18.3807C23.0188 18.2199 23.1024 18.0712 23.2164 17.9451C23.4152 17.6917 23.6973 17.5103 24.0171 17.4303C24.8518 17.1977 25.7112 17.056 26.579 17.0076C26.7697 16.9864 26.9629 17.0018 27.1472 17.0532C27.3316 17.1046 27.5033 17.1907 27.6525 17.3067C27.8016 17.4227 27.9252 17.5661 28.0158 17.7285C28.1064 17.8909 28.1623 18.069 28.1802 18.2525C28.4304 19.1534 28.4578 20.0981 28.2603 21.0111C27.5398 23.9618 25.0578 24.9761 22.2717 24.0309C21.4896 23.7782 20.8039 23.3074 20.3022 22.6785C19.633 21.9212 19.1586 21.0237 18.9171 20.0582C18.7214 19.1985 18.7428 18.3063 18.9797 17.4562C19.2164 16.606 19.6616 15.8225 20.2781 15.1711C20.8632 14.4631 21.6226 13.906 22.4879 13.5498C23.0346 13.2605 23.6744 13.1783 24.2813 13.3192C24.4189 13.3558 24.5439 13.4271 24.6432 13.5256C24.7425 13.6241 24.8125 13.7464 24.846 13.8797C24.8795 14.0129 24.8752 14.1524 24.8336 14.2835C24.792 14.4147 24.7147 14.5328 24.6095 14.6255C24.4096 14.7992 24.1924 14.9537 23.961 15.0866C23.2492 15.5216 22.6298 16.0822 22.1356 16.7387C21.8116 17.1635 21.5885 17.6512 21.482 18.1676C21.3755 18.684 21.3881 19.2166 21.5191 19.7278C21.7007 20.4249 22.1036 21.0506 22.672 21.5182C24.4333 23.0551 26.7231 21.572 26.3228 19.4742C25.7384 19.6126 25.226 19.7586 24.7055 19.8815Z" fill="#3A3B7B"/>
<path d="M35.466 24.2153C32.864 25.7522 29.9017 24.2153 29.2532 20.988C28.7809 18.6828 29.6776 15.4554 32.816 14.226C33.4838 13.97 34.208 13.8801 34.9216 13.9647C35.779 14.1153 36.5655 14.5204 37.1702 15.1229C37.7748 15.7253 38.1674 16.4947 38.2922 17.3227C38.8206 20.0659 37.6197 22.9936 35.466 24.2153ZM36.3708 19.0439C36.37 18.4056 36.1347 17.7879 35.7062 17.2996C35.4772 16.9976 35.1461 16.7812 34.7695 16.6873C34.3927 16.5935 33.9938 16.6279 33.6406 16.7848C32.2315 17.3688 31.2388 19.4896 31.5991 21.0495C31.6266 21.2943 31.7094 21.5304 31.8419 21.7412C31.9744 21.9521 32.1532 22.1326 32.366 22.2702C32.5787 22.4078 32.8202 22.4991 33.0736 22.5378C33.327 22.5764 33.5861 22.5615 33.8328 22.4941C34.5776 22.2444 35.2225 21.7777 35.6774 21.1591C36.1325 20.5406 36.3749 19.8011 36.3708 19.0439Z" fill="#3A3B7B"/>
<path d="M40.9235 24.8609C40.8842 25.1421 40.7302 25.3969 40.4952 25.5691C40.2602 25.7413 39.9635 25.8169 39.6705 25.7792C39.3775 25.7415 39.1121 25.5936 38.9327 25.368C38.7532 25.1425 38.6745 24.8578 38.7138 24.5766C38.7531 24.2953 38.9072 24.0406 39.1421 23.8684C39.3771 23.6962 39.6737 23.6206 39.9668 23.6583C40.2598 23.696 40.5252 23.8439 40.7047 24.0694C40.8841 24.295 40.9628 24.5797 40.9235 24.8609ZM40.2269 14.495C40.3792 14.2718 40.6026 14.1018 40.8638 14.0104C41.1249 13.919 41.4099 13.9111 41.6761 13.9878C41.9467 14.0528 42.1858 14.2051 42.3535 14.4191C42.5211 14.6331 42.607 14.8959 42.5968 15.1635C42.5615 15.5927 42.4946 16.0189 42.3967 16.4391C42.1325 17.8606 41.8762 19.2822 41.596 20.6884C41.4679 21.2494 41.2998 21.7872 41.1156 22.3558C41.0516 22.5336 40.9446 22.6942 40.8034 22.8246C40.7157 22.9227 40.6036 22.9979 40.4775 23.0433C40.3514 23.0888 40.2155 23.1029 40.0822 23.0845C39.9489 23.0661 39.8225 23.0158 39.7149 22.9381C39.6073 22.8604 39.5218 22.758 39.4664 22.6402C39.3712 22.4289 39.3195 22.2018 39.3143 21.9717C39.3143 21.0188 39.3143 20.0583 39.3783 19.0978C39.4872 17.727 39.7012 16.3657 40.0188 15.0252C40.0562 14.8456 40.1266 14.6738 40.2269 14.518V14.495Z" fill="#3A3B7B"/>
<path fill-rule="evenodd" clip-rule="evenodd" d="M4.31263 31.0356C4.2181 31.2382 4.19218 31.464 4.23837 31.6813C4.2691 31.9677 4.3366 32.2495 4.43933 32.5201C4.56759 32.8515 4.71111 33.1792 4.88807 33.5831C4.92876 33.676 4.97129 33.773 5.01579 33.8751C5.25443 34.4223 5.55386 35.1216 5.95326 36.1336C6.06631 36.4211 6.1667 36.711 6.26779 37.0028C6.30862 37.1207 6.34961 37.2391 6.39156 37.3576C6.54193 37.7792 6.80067 38.1579 7.14364 38.458C7.28927 38.623 7.48244 38.7432 7.69904 38.8033C7.91988 38.8646 8.15474 38.8607 8.37323 38.7922C8.59171 38.7236 8.7836 38.5935 8.924 38.4188C9.06164 38.2475 9.14349 38.041 9.1594 37.8254C9.2487 37.4053 9.21822 36.9697 9.07104 36.5647C8.83745 35.8922 8.57136 35.2187 8.26452 34.56L8.26311 34.5571C7.75833 33.5266 7.24523 32.5032 6.70784 31.4793L6.70382 31.4721C6.5465 31.2054 6.34206 30.9669 6.09967 30.7675C5.94232 30.5895 5.72526 30.4694 5.48556 30.428C5.24076 30.3858 4.98827 30.4283 4.77319 30.5482C4.56972 30.6597 4.40843 30.8304 4.31263 31.0356Z" fill="#3A3B7B"/>
<path fill-rule="evenodd" clip-rule="evenodd" d="M12.0224 28.498C11.2309 28.3013 10.4043 28.2726 9.60025 28.414C8.97743 28.4729 8.36488 28.6108 7.93953 28.8839C7.7232 29.0229 7.54829 29.2014 7.451 29.4282C7.35318 29.6564 7.34069 29.9172 7.42086 30.2079C7.56723 30.7403 7.75731 31.2579 7.94672 31.7739L7.9774 31.8575L7.97814 31.8594C8.54845 33.3584 9.1242 34.8524 9.70519 36.3412C9.77294 36.5758 9.86875 36.8022 9.99068 37.0156L9.99296 37.0196C10.154 37.2848 10.3606 37.522 10.604 37.7213C10.7258 37.8308 10.8763 37.9066 11.0395 37.9405C11.2044 37.9746 11.3758 37.9647 11.5351 37.9117C11.6945 37.8588 11.8356 37.7649 11.9432 37.6402C12.049 37.5175 12.1183 37.3698 12.1438 37.2125C12.2488 36.7853 12.2151 36.3374 12.0473 35.9291C11.9949 35.7916 11.9538 35.6512 11.9105 35.5033C11.8961 35.454 11.8814 35.4039 11.866 35.3528C13.1959 34.8539 14.6109 34.183 15.1085 32.6223C15.3034 32.0829 15.3196 31.4989 15.155 30.9503C14.9902 30.4011 14.6521 29.9143 14.1874 29.5569C13.5548 29.0566 12.8159 28.6952 12.0224 28.498ZM9.82853 30.4123C9.85472 30.4051 9.8811 30.3984 9.90756 30.3921C10.7734 30.2615 11.6592 30.4355 12.4019 30.8821C12.7292 31.1006 12.8633 31.3434 12.8864 31.5769C12.9101 31.8174 12.819 32.0781 12.636 32.3286C12.2901 32.8018 11.659 33.1806 11.0889 33.2512C10.6733 32.3325 10.2512 31.3767 9.82853 30.4123Z" fill="#3A3B7B"/>
<path d="M17.2991 26.8165C18.2417 26.3988 19.4092 26.3266 20.3228 26.6203C20.5529 26.6847 20.7525 26.8238 20.8876 27.0139C21.0217 27.2029 21.0836 27.4306 21.0629 27.6583C21.0616 27.806 21.0238 27.9514 20.9527 28.0826C20.8803 28.2161 20.7755 28.3309 20.6471 28.4174C20.5187 28.5038 20.3706 28.5594 20.2151 28.5792C20.0596 28.5991 19.9015 28.5828 19.754 28.5316L19.7428 28.5277L19.7322 28.5223C19.6568 28.4844 19.5766 28.4559 19.4937 28.4373L19.4884 28.4362C18.8457 28.2724 18.2395 28.5438 18.0181 28.8774C17.9125 29.0364 17.8994 29.197 17.9873 29.343C18.0815 29.4994 18.3126 29.675 18.7801 29.8001C18.9087 29.8339 19.0405 29.8666 19.1741 29.8998C19.5438 29.9917 19.928 30.0872 20.2995 30.2194L20.3009 30.22C22.0148 30.8458 22.653 32.1421 22.4345 33.3613C22.2184 34.5669 21.1693 35.6642 19.5916 35.923C19.0176 36.0451 18.4201 36.0213 17.8585 35.854C17.2954 35.6861 16.7879 35.3799 16.3863 34.9654L16.3758 34.9546C16.2491 34.7985 16.1638 34.615 16.126 34.4204C16.0912 34.2448 16.1095 34.0633 16.1787 33.8972C16.2474 33.7322 16.3637 33.5894 16.5138 33.4853C16.6723 33.3673 16.8634 33.2965 17.0634 33.2818C17.2628 33.2671 17.4623 33.3087 17.6373 33.4013C17.8121 33.4824 17.9748 33.5858 18.1207 33.7088L18.1235 33.711C18.3817 33.9377 18.6941 33.9968 18.9937 33.942C19.2977 33.8866 19.5835 33.7139 19.7673 33.4849C19.95 33.2573 20.0233 32.987 19.9363 32.7245C19.8487 32.4601 19.5854 32.164 19.007 31.9163C18.8558 31.8547 18.699 31.805 18.5359 31.7566C18.492 31.7436 18.4472 31.7306 18.402 31.7174C18.2814 31.6823 18.1573 31.6461 18.0357 31.6062C17.9519 31.5788 17.8687 31.5528 17.7864 31.5271C17.5614 31.4567 17.3421 31.3882 17.131 31.2963C16.6715 31.1461 16.2746 30.8578 15.9992 30.474C15.7227 30.0887 15.5836 29.628 15.6025 29.1605C15.604 28.0214 16.3515 27.2367 17.2991 26.8165Z" fill="#3A3B7B"/>
<path d="M29.2487 26.695C29.0659 26.6094 28.8638 26.5687 28.6607 26.5767C28.4574 26.5847 28.2595 26.6411 28.0847 26.741C27.911 26.8401 27.7656 26.9789 27.6614 27.1451C27.5658 27.285 27.4997 27.4415 27.4667 27.6058C27.4338 27.7699 27.4346 27.9387 27.469 28.1025C27.503 28.313 27.5408 28.5177 27.578 28.7196C27.6397 29.0537 27.6998 29.3802 27.7394 29.7132L27.7409 29.7217C27.831 30.2438 27.8782 30.772 27.8825 31.3012L27.8829 31.3087C27.9137 31.8803 27.7108 32.4407 27.3177 32.8711L27.3114 32.8788C27.1835 33.0361 27.0125 33.1562 26.8174 33.2256C26.6225 33.295 26.4112 33.3109 26.2073 33.2716C26.0034 33.2324 25.8149 33.1394 25.6629 33.0032C25.5109 32.867 25.4013 32.6923 25.3465 32.4998C25.2297 32.094 25.1621 31.6766 25.1449 31.2559L25.3445 28.2068C25.3474 28.167 25.3508 28.1261 25.3542 28.0849C25.3618 27.9923 25.3696 27.8979 25.3728 27.81C25.3775 27.6805 25.3735 27.5474 25.3421 27.4214C25.3099 27.2926 25.2487 27.17 25.1402 27.0657C25.0328 26.9624 24.8878 26.8862 24.7053 26.8344C24.3753 26.7427 24.0962 26.7456 23.8637 26.8403C23.631 26.935 23.4717 27.1109 23.3589 27.314C23.2469 27.5154 23.175 27.7539 23.1206 27.9927C23.0803 28.17 23.0478 28.356 23.017 28.5331C23.0064 28.5941 22.9959 28.6541 22.9854 28.7123L22.9851 28.714C22.8202 29.6852 22.7712 30.6713 22.8388 31.6532C22.8515 32.1839 22.9667 32.7077 23.1789 33.1978C23.4183 33.8303 23.8518 34.3783 24.4223 34.7694C24.9941 35.1614 25.6763 35.3774 26.3787 35.3888C27.0812 35.4002 27.7707 35.2065 28.3559 34.8334C28.9402 34.4608 29.393 33.9268 29.6544 33.302C30.0202 32.5062 30.1919 31.6407 30.1565 30.7715C30.135 30.1369 30.099 29.4974 30.0632 28.8612C30.0456 28.5491 30.0281 28.2377 30.0124 27.9282C30.0045 27.6178 29.8978 27.3172 29.7067 27.0667C29.5885 26.9083 29.4311 26.7806 29.2487 26.695Z" fill="#3A3B7B"/>
<path d="M35.7174 31.4763C35.6988 31.4989 35.6793 31.5223 35.6589 31.5466C35.5102 30.7235 35.3725 29.9007 35.2345 29.0766C35.185 28.781 35.1352 28.4841 35.0852 28.188L35.0796 28.155L35.0613 28.1264C35.0269 28.0727 35.0234 28.0201 35.0234 27.9077V27.8948L35.0214 27.8819C34.984 27.65 34.8747 27.4341 34.7077 27.2626C34.5412 27.0916 34.325 26.9726 34.0871 26.9209C33.8496 26.8647 33.6 26.8771 33.3698 26.9565C33.1402 27.0358 32.94 27.1783 32.7943 27.3662C32.6732 27.5103 32.5739 27.6702 32.4995 27.841C32.3306 28.2091 32.1603 28.578 31.9895 28.948L31.9865 28.9544C31.5601 29.878 31.1308 30.8077 30.7139 31.7448L30.7127 31.7479C30.4568 32.3555 30.2456 32.9957 30.0351 33.634C29.993 33.7614 29.951 33.8887 29.9086 34.0157C29.8326 34.2172 29.7994 34.4311 29.8108 34.645C29.797 34.8364 29.8447 35.0274 29.9477 35.1921C30.0527 35.3602 30.21 35.4924 30.3974 35.5703C30.596 35.6538 30.8181 35.6716 31.0284 35.6207C31.2383 35.5699 31.4247 35.4536 31.5583 35.2902C31.7288 35.0888 31.8755 34.8692 31.9952 34.6365C32.3483 33.9433 32.6857 33.2416 33.0216 32.543C33.1516 32.2728 33.2779 32.0308 33.4216 31.7672C33.4315 31.7997 33.4416 31.8314 33.452 31.8631C33.6026 32.4995 33.8568 33.109 34.2052 33.6694C34.2711 33.7881 34.363 33.8918 34.4744 33.9735C34.5872 34.0561 34.7174 34.1141 34.8559 34.1436C34.9944 34.1731 35.138 34.1732 35.2766 34.144C35.415 34.1149 35.5455 34.0568 35.6584 33.9745L35.8818 33.8141L37.6156 32.4124L37.5131 33.0395C37.3724 33.9015 37.2327 34.7564 37.0843 35.6114C36.9872 35.9904 36.9874 36.3862 37.0847 36.7651C37.1269 36.9783 37.2343 37.1746 37.3933 37.3289C37.5537 37.4845 37.759 37.5902 37.9827 37.6324C38.2064 37.6745 38.4382 37.6512 38.6479 37.5653C38.8545 37.4808 39.0303 37.3393 39.1532 37.1591C39.4391 36.8187 39.617 36.4065 39.6659 35.9717C39.7395 35.3577 39.8226 34.7353 39.9058 34.1131C40.0016 33.396 40.0974 32.679 40.1783 31.9758L40.1786 31.9737C40.2565 31.2039 40.2942 30.431 40.2915 29.6576C40.3086 29.4132 40.2452 29.1698 40.1101 28.9617C39.9746 28.7529 39.7738 28.5906 39.5365 28.4977C39.2897 28.39 39.0134 28.3612 38.7483 28.4156C38.4849 28.4697 38.2464 28.603 38.0676 28.796C37.7478 29.0799 37.4478 29.3836 37.1695 29.7053L37.1676 29.7075C36.8638 30.0709 36.562 30.4414 36.2622 30.8095C36.0799 31.0332 35.8982 31.2565 35.7174 31.4763Z" fill="#3A3B7B"/>
</g>
<defs>
<clipPath id="clip0_15_1451">
<rect width="47" height="29" fill="white" transform="translate(0 9.84668)"/>
</clipPath>
</defs>
</svg>
