<svg width="48" height="48" viewBox="0 0 48 48" fill="none" xmlns="http://www.w3.org/2000/svg">
<rect width="48" height="48" rx="8" fill="#F5F7FA"/>
<g clip-path="url(#clip0_15_1467)">
<path d="M38.4375 11.6904C38.4375 12.1564 38.8199 12.5342 39.2917 12.5342H40.1458C40.6176 12.5342 41 12.1564 41 11.6904C41 11.2244 40.6176 10.8467 40.1458 10.8467H39.2917C38.8199 10.8467 38.4375 11.2244 38.4375 11.6904Z" fill="#212326"/>
<path d="M13.6667 37.8467H17.8161L16.6081 36.6534C16.2877 36.337 15.8532 36.1592 15.4001 36.1592H13.6667C7.06225 36.1592 1.70833 30.8706 1.70833 24.3467C1.70833 17.8228 7.06225 12.5342 13.6667 12.5342H27.3333C33.9378 12.5342 39.2917 17.8228 39.2917 24.3467C39.2917 30.8706 33.9378 36.1592 27.3333 36.1592H22.2209C21.5413 36.1592 20.8895 35.8925 20.4089 35.4178L18.9937 34.0198C18.1928 33.2287 17.1064 32.7842 15.9737 32.7842H13.6667C8.94921 32.7842 5.125 29.0066 5.125 24.3467C5.125 19.6867 8.94921 15.9092 13.6667 15.9092H27.3333C32.0508 15.9092 35.875 19.6867 35.875 24.3467C35.875 29.0066 32.0508 32.7842 27.3333 32.7842H24.0507C23.371 32.7842 22.7193 32.5175 22.2387 32.0428L20.8234 30.6448C20.0225 29.8537 18.9362 29.4092 17.8035 29.4092H13.6667C10.8362 29.4092 8.54167 27.1426 8.54167 24.3467C8.54167 21.5508 10.8362 19.2842 13.6667 19.2842H27.3333C30.1638 19.2842 32.4583 21.5508 32.4583 24.3467C32.4583 27.1085 30.2194 29.3538 27.4367 29.4082L27.4361 29.4092H26.1861C25.5064 29.4092 24.8547 29.1425 24.3741 28.6678L22.9588 27.2698C22.3017 26.6206 21.4524 26.2049 20.5429 26.0766L20.5 26.0342H13.6667C12.7232 26.0342 11.9583 25.2787 11.9583 24.3467C11.9583 23.4147 12.7232 22.6592 13.6667 22.6592H27.3333C28.2768 22.6592 29.0417 23.4147 29.0417 24.3467C29.0417 25.2787 28.2768 26.0342 27.3333 26.0342H23.9167L25.1247 27.2274C25.445 27.5439 25.8795 27.7217 26.3326 27.7217H27.3333C29.2203 27.7217 30.75 26.2106 30.75 24.3467C30.75 22.4827 29.2203 20.9717 27.3333 20.9717H13.6667C11.7797 20.9717 10.25 22.4827 10.25 24.3467C10.25 26.2106 11.7797 27.7217 13.6667 27.7217H19.9389C20.6186 27.7217 21.2703 27.9884 21.7509 28.463L23.1662 29.861C23.9671 30.6522 25.0534 31.0967 26.1861 31.0967H27.7604V31.0837C31.3354 30.866 34.1667 27.9329 34.1667 24.3467C34.1667 20.6188 31.1072 17.5967 27.3333 17.5967H13.6667C9.89275 17.5967 6.83333 20.6188 6.83333 24.3467C6.83333 28.0746 9.89275 31.0967 13.6667 31.0967H17.8035C18.4831 31.0967 19.1349 31.3634 19.6155 31.838L21.0307 33.236C21.8317 34.0272 22.918 34.4717 24.0507 34.4717H27.3333C32.9943 34.4717 37.5833 29.9386 37.5833 24.3467C37.5833 18.7548 32.9943 14.2217 27.3333 14.2217H13.6667C8.00573 14.2217 3.41667 18.7548 3.41667 24.3467C3.41667 29.9386 8.00573 34.4717 13.6667 34.4717H15.9737C16.6534 34.4717 17.3051 34.7384 17.7857 35.213L19.201 36.611C20.0019 37.4022 21.0882 37.8467 22.2209 37.8467H27.3333C34.8812 37.8467 41 31.8025 41 24.3467C41 16.8908 34.8812 10.8467 27.3333 10.8467L13.6667 10.8467C6.11877 10.8467 -6.59857e-07 16.8908 0 24.3467C6.59857e-07 31.8025 6.11878 37.8467 13.6667 37.8467Z" fill="#212326"/>
</g>
<defs>
<clipPath id="clip0_15_1467">
<rect width="41" height="27" fill="white" transform="translate(0 10.8467)"/>
</clipPath>
</defs>
</svg>
