<svg width="52" height="48" viewBox="0 0 52 48" fill="none" xmlns="http://www.w3.org/2000/svg">
<rect width="48" height="48" rx="8" fill="#F5F7FA"/>
<g clip-path="url(#clip0_15_1471)">
<path d="M12.3431 13.8467C10.3124 13.8467 8.36487 14.6534 6.92893 16.0893L2.24264 20.7756C0.8067 22.2115 0 24.1591 0 26.1898C0 30.4186 3.42809 33.8467 7.65687 33.8467C9.6876 33.8467 11.6351 33.0399 13.0711 31.604L16.3126 28.3625C16.3126 28.3624 16.3127 28.3625 16.3126 28.3625L25.7573 18.9177C26.4431 18.232 27.3733 17.8467 28.3431 17.8467C29.9669 17.8467 31.3435 18.905 31.8207 20.3694L34.8015 17.3887C33.4417 15.2589 31.0573 13.8467 28.3431 13.8467C26.3124 13.8467 24.3649 14.6534 22.9289 16.0893L10.2427 28.7756C9.55687 29.4614 8.62673 29.8467 7.65687 29.8467C5.63723 29.8467 4 28.2095 4 26.1898C4 25.2199 4.38527 24.2898 5.07107 23.604L9.75733 18.9177C10.4431 18.232 11.3733 17.8467 12.3431 17.8467C13.9669 17.8467 15.3435 18.905 15.8207 20.3695L18.8015 17.3887C17.4417 15.2589 15.0574 13.8467 12.3431 13.8467Z" fill="#394149"/>
<path d="M26.2427 28.7756C25.5569 29.4614 24.6267 29.8467 23.6569 29.8467C22.0333 29.8467 20.6569 28.7887 20.1795 27.3245L17.1988 30.3051C18.5587 32.4346 20.9429 33.8467 23.6569 33.8467C25.6876 33.8467 27.6351 33.0399 29.0711 31.604L41.7573 18.9177C42.4431 18.232 43.3733 17.8467 44.3431 17.8467C46.3628 17.8467 48 19.4839 48 21.5035C48 22.4734 47.6147 23.4035 46.9289 24.0893L42.2427 28.7756C41.5569 29.4614 40.6267 29.8467 39.6569 29.8467C38.0332 29.8467 36.6567 28.7885 36.1793 27.3241L33.1987 30.3049C34.5585 32.4345 36.9427 33.8467 39.6569 33.8467C41.6876 33.8467 43.6351 33.0399 45.0711 31.604L49.7573 26.9177C51.1933 25.4818 52 23.5343 52 21.5035C52 17.2748 48.5719 13.8467 44.3431 13.8467C42.3124 13.8467 40.3649 14.6534 38.9289 16.0893L26.2427 28.7756Z" fill="#394149"/>
</g>
<defs>
<clipPath id="clip0_15_1471">
<rect width="52" height="20" fill="white" transform="translate(0 13.8467)"/>
</clipPath>
</defs>
</svg>
