<svg width="55" height="48" viewBox="0 0 55 48" fill="none" xmlns="http://www.w3.org/2000/svg">
<rect width="48" height="48" rx="8" fill="#F5F7FA"/>
<g clip-path="url(#clip0_15_1447)">
<path d="M54.9957 19.5163C55.0015 19.4746 55.0015 19.4325 54.9957 19.3908C55.0011 19.3568 55.0011 19.3222 54.9957 19.2881L54.5883 16.3555C54.5295 16.0046 54.3723 15.6767 54.1344 15.4083L54.0645 15.3285L53.9365 15.2029L46.8829 9.24635L47.0808 9.44036C46.9189 9.25047 46.7157 9.09859 46.4861 8.9959C46.2565 8.89321 46.0062 8.84232 45.7539 8.84698H43.6122C43.2639 8.84021 42.9236 8.94877 42.6461 9.15508C42.3547 8.95001 42.0038 8.84201 41.6451 8.84698H39.5034C39.2225 8.84251 38.9454 8.91085 38.7001 9.04511C38.4549 9.17936 38.2501 9.37476 38.1067 9.61151C37.8855 9.94967 37.8023 10.3571 37.8738 10.7526L38.1416 12.6012C37.9642 12.5026 37.7635 12.4515 37.5596 12.4529H27.1887C26.8166 12.4552 26.4531 12.5621 26.1411 12.761C25.8395 12.9461 25.5973 13.2111 25.4428 13.5255L24.6396 12.8523C24.3235 12.5655 23.9063 12.4101 23.4757 12.4186H7.20353C6.83012 12.4253 6.46501 12.5276 6.14436 12.7153C5.70569 12.967 5.38421 13.3763 5.24809 13.8564L0.0801167 30.8019C-0.0164452 31.0811 -0.0259442 31.3822 0.0528362 31.6668C0.131617 31.9513 0.295109 32.2064 0.522426 32.3995C0.581658 32.4487 0.643851 32.4944 0.708664 32.5363C0.708664 32.5363 0.603891 32.4679 0.545692 32.4109L7.59931 38.3788C7.89769 38.6482 8.28781 38.7987 8.69336 38.801H25.0936C25.4681 38.7915 25.8335 38.6852 26.1528 38.4929C26.3334 38.3962 26.495 38.2687 26.63 38.1163L26.6882 38.0365L26.7813 37.9224L26.8512 37.7968L27.6194 38.4473C27.9135 38.7059 28.2951 38.8482 28.6902 38.8467H45.1253C45.4994 38.8345 45.8641 38.7284 46.1845 38.5386C46.361 38.4359 46.5217 38.3091 46.6618 38.162L46.7199 38.0821L46.813 37.9681C46.8625 37.8958 46.9055 37.8195 46.941 37.7398C46.9791 37.6706 47.0103 37.598 47.0342 37.523L51.7482 22.0496V21.9127C51.754 21.8596 51.754 21.806 51.7482 21.7529V21.6502C51.7539 21.6162 51.7539 21.5815 51.7482 21.5475C51.7535 21.4753 51.7535 21.4029 51.7482 21.3307H53.2614C53.393 21.3425 53.5255 21.3425 53.6571 21.3307H53.7619C53.8471 21.3058 53.9291 21.2713 54.0063 21.228H54.1227L54.3322 21.0682L54.4253 20.9998L54.5883 20.7943V20.7259L54.7047 20.5319C54.6982 20.4942 54.6982 20.4556 54.7047 20.4178C54.6985 20.3993 54.6985 20.3793 54.7047 20.3608C54.7294 20.2939 54.7489 20.2252 54.7629 20.1553C54.7575 20.1328 54.7575 20.1094 54.7629 20.0869C54.7572 20.0529 54.7572 20.0182 54.7629 19.9842C54.7629 19.9842 54.9957 19.5391 54.9957 19.5163Z" fill="black"/>
<path d="M23.9529 13.7196C24.0147 13.7744 24.0578 13.8464 24.0765 13.926C24.0953 14.0055 24.0887 14.0888 24.0577 14.1646L18.9013 31.0986C18.8364 31.2835 18.7036 31.4381 18.5289 31.5323C18.3867 31.6255 18.2222 31.6806 18.0516 31.692H1.6631C1.52314 31.6854 1.39055 31.6286 1.29063 31.5323C1.23119 31.4784 1.18948 31.4083 1.17081 31.3311C1.15215 31.2539 1.15741 31.173 1.18588 31.0986L6.35385 14.1646C6.4134 13.9774 6.54206 13.8187 6.71468 13.7196C6.85918 13.6331 7.02294 13.5821 7.1919 13.5712H23.5804C23.7193 13.5725 23.8524 13.6256 23.9529 13.7196ZM15.3978 27.6867L18.4823 17.5765H9.84575L6.77286 27.6867H15.3978ZM39.5965 13.8907C39.6524 13.9544 39.7223 14.005 39.8009 14.0386C39.8795 14.0721 39.9647 14.0879 40.0505 14.0847H42.1805C42.2616 14.0855 42.3415 14.066 42.4129 14.0281C42.4841 13.9901 42.5443 13.935 42.5879 13.8679C42.6257 13.8155 42.6524 13.7562 42.6664 13.6934C42.6804 13.6307 42.6814 13.5659 42.6693 13.5028L42.2503 10.4903C42.2104 10.3508 42.1388 10.2221 42.0408 10.1137C41.9848 10.05 41.915 9.99946 41.8364 9.96587C41.7578 9.93229 41.6725 9.91651 41.5869 9.9197H39.4568C39.3757 9.91892 39.2957 9.93842 39.2245 9.97636C39.1532 10.0143 39.0929 10.0694 39.0495 10.1365C38.9679 10.2963 38.933 10.399 38.9679 10.4903L39.3986 13.5028C39.4207 13.6495 39.4901 13.7854 39.5965 13.8907ZM46.3591 10.4674C46.3192 10.328 46.2475 10.1993 46.1496 10.0909C46.096 10.0274 46.0282 9.97688 45.9515 9.94324C45.8748 9.9096 45.7912 9.89373 45.7073 9.89687H43.5656C43.4858 9.89465 43.4069 9.91362 43.3372 9.95179C43.2676 9.98996 43.2097 10.0459 43.1699 10.1137C43.0924 10.2149 43.0589 10.3421 43.0768 10.4674L43.5074 13.4799C43.5344 13.6251 43.603 13.7597 43.7053 13.8679C43.7622 13.9304 43.8322 13.9801 43.9106 14.0135C43.989 14.047 44.0737 14.0635 44.1592 14.0619H46.3009C46.3805 14.0629 46.4589 14.0435 46.5283 14.0054C46.5978 13.9673 46.6559 13.9121 46.6967 13.8451C46.7372 13.7941 46.7654 13.7347 46.7795 13.6716C46.7937 13.6084 46.7931 13.5429 46.7781 13.4799L46.3591 10.4674ZM37.7225 15.0319L37.513 13.5484H27.1887C27.0266 13.5572 26.8698 13.6084 26.7347 13.6968C26.649 13.7426 26.5744 13.8061 26.5161 13.8829C26.4579 13.9598 26.4173 14.0481 26.3972 14.1418L25.5359 16.9717C25.5015 17.0424 25.4897 17.1218 25.5022 17.1992C25.5147 17.2766 25.5508 17.3484 25.6057 17.4054C25.7039 17.4958 25.832 17.5485 25.9666 17.5537H38.514L35.4295 27.6639H22.917C22.7556 27.6675 22.5985 27.7149 22.4631 27.8008C22.2984 27.9033 22.1782 28.0618 22.1255 28.2459L21.2525 31.0758C21.224 31.1484 21.2165 31.2273 21.2309 31.3038C21.2453 31.3804 21.2809 31.4515 21.334 31.5094C21.4291 31.6059 21.5582 31.6631 21.6948 31.6692H38.1299C38.2999 31.6548 38.4637 31.6 38.6071 31.5094C38.779 31.4148 38.9079 31.2599 38.9679 31.0758L43.6936 15.6024H38.3743C38.2899 15.604 38.2061 15.5887 38.1281 15.5573C38.05 15.5259 37.9793 15.4791 37.9204 15.4198C37.8242 15.3163 37.7561 15.1908 37.7225 15.0547V15.0319Z" fill="white"/>
</g>
<defs>
<clipPath id="clip0_15_1447">
<rect width="55" height="30" fill="white" transform="translate(0 8.84668)"/>
</clipPath>
</defs>
</svg>
